<svg width="50" height="50" viewBox="0 0 50 50" fill="none" xmlns="http://www.w3.org/2000/svg">
<path d="M12.9688 10.0228C12.5758 9.64331 12.0496 9.43332 11.5033 9.43807C10.9571 9.44281 10.4346 9.66192 10.0483 10.0482C9.66204 10.4345 9.44294 10.957 9.43819 11.5032C9.43344 12.0495 9.64343 12.5757 10.0229 12.9686L22.0542 24.9999L10.0208 37.0311C9.82186 37.2233 9.66315 37.4532 9.55396 37.7074C9.44478 37.9616 9.38731 38.2349 9.38491 38.5116C9.3825 38.7882 9.43521 39.0625 9.53996 39.3185C9.64472 39.5746 9.79941 39.8072 9.99502 40.0028C10.1906 40.1984 10.4232 40.3531 10.6793 40.4578C10.9353 40.5626 11.2096 40.6153 11.4863 40.6129C11.7629 40.6105 12.0363 40.553 12.2904 40.4438C12.5446 40.3347 12.7745 40.1759 12.9667 39.977L25 27.9457L37.0313 39.977C37.4242 40.3565 37.9504 40.5665 38.4967 40.5617C39.0429 40.557 39.5654 40.3379 39.9517 39.9516C40.338 39.5653 40.5571 39.0428 40.5618 38.4966C40.5666 37.9503 40.3566 37.4241 39.9771 37.0311L27.9458 24.9999L39.9771 12.9686C40.3566 12.5757 40.5666 12.0495 40.5618 11.5032C40.5571 10.957 40.338 10.4345 39.9517 10.0482C39.5654 9.66192 39.0429 9.44281 38.4967 9.43807C37.9504 9.43332 37.4242 9.64331 37.0313 10.0228L25 22.0541L12.9688 10.0207V10.0228Z" fill="#58595B"/>
</svg>
