<svg width="26" height="26" viewBox="0 0 26 26" fill="none" xmlns="http://www.w3.org/2000/svg">
<g clip-path="url(#clip0_7_2440)">
<path d="M19.7371 0.236749C19.8125 0.161084 19.9022 0.101052 20.0009 0.0600914C20.0996 0.0191309 20.2054 -0.00195313 20.3123 -0.00195312C20.4192 -0.00195312 20.525 0.0191309 20.6237 0.0600914C20.7224 0.101052 20.8121 0.161084 20.8876 0.236749L25.7626 5.11175C25.8382 5.18722 25.8983 5.27688 25.9392 5.37559C25.9802 5.47431 26.0013 5.58013 26.0013 5.687C26.0013 5.79387 25.9802 5.89969 25.9392 5.9984C25.8983 6.09711 25.8382 6.18677 25.7626 6.26225L9.51256 22.5122C9.43458 22.5897 9.34171 22.6505 9.23956 22.691L1.11456 25.941C0.966903 26.0001 0.80515 26.0146 0.649351 25.9826C0.493552 25.9506 0.350559 25.8737 0.238098 25.7612C0.125638 25.6487 0.0486556 25.5058 0.016696 25.35C-0.0152636 25.1942 -0.000795395 25.0324 0.058307 24.8847L3.30831 16.7597C3.34882 16.6576 3.40963 16.5647 3.48706 16.4867L19.7371 0.236749ZM18.2112 4.062L21.9373 7.78812L24.0384 5.687L20.3123 1.96087L18.2112 4.062ZM20.7884 8.937L17.0623 5.21087L6.49981 15.7734V16.2495H7.31231C7.5278 16.2495 7.73446 16.3351 7.88683 16.4875C8.03921 16.6398 8.12481 16.8465 8.12481 17.062V17.8745H8.93731C9.1528 17.8745 9.35946 17.9601 9.51183 18.1125C9.66421 18.2648 9.74981 18.4715 9.74981 18.687V19.4995H10.2259L20.7884 8.937ZM4.92681 17.3464L4.75456 17.5186L2.27156 23.7277L8.48068 21.2447L8.65293 21.0725C8.49794 21.0146 8.36432 20.9107 8.26995 20.7748C8.17557 20.6389 8.12493 20.4775 8.12481 20.312V19.4995H7.31231C7.09682 19.4995 6.89016 19.4139 6.73778 19.2615C6.58541 19.1091 6.49981 18.9025 6.49981 18.687V17.8745H5.68731C5.52185 17.8744 5.36037 17.8237 5.22447 17.7294C5.08857 17.635 4.98472 17.5014 4.92681 17.3464Z" fill="#F2F2F2"/>
</g>
<defs>
<clipPath id="clip0_7_2440">
<rect width="26" height="26" fill="white"/>
</clipPath>
</defs>
</svg>
