<svg width="50" height="50" viewBox="0 0 50 50" fill="none" xmlns="http://www.w3.org/2000/svg">
<path d="M46.2159 24.6581L27.3487 5.80066L26.084 4.53601C25.7959 4.24976 25.4062 4.08911 25 4.08911C24.5939 4.08911 24.2042 4.24976 23.9161 4.53601L3.78423 24.6581C3.48897 24.9522 3.25562 25.3025 3.09796 25.6882C2.9403 26.074 2.86151 26.4875 2.86626 26.9042C2.88579 28.6229 4.31646 29.995 6.03521 29.995H8.1104V45.8983H41.8897V29.995H44.0088C44.8438 29.995 45.6299 29.6678 46.2208 29.077C46.5117 28.787 46.7422 28.4422 46.8989 28.0625C47.0556 27.6829 47.1355 27.2759 47.1338 26.8651C47.1338 26.035 46.8067 25.2489 46.2159 24.6581ZM27.7344 42.3827H22.2657V32.4218H27.7344V42.3827ZM38.3741 26.4794V42.3827H30.8594V31.2499C30.8594 30.1708 29.9854 29.2968 28.9063 29.2968H21.0938C20.0147 29.2968 19.1407 30.1708 19.1407 31.2499V42.3827H11.626V26.4794H6.93853L25.0049 8.42761L26.1329 9.55554L43.0665 26.4794H38.3741Z" fill="rgb(255, 159, 64)"/>
</svg>
