<svg width="50" height="50" viewBox="0 0 50 50" fill="none" xmlns="http://www.w3.org/2000/svg">
<path d="M43.4 9.48958C43.6093 9.17583 43.7295 8.81114 43.7478 8.43441C43.7661 8.05768 43.6818 7.68305 43.5039 7.35049C43.3259 7.01793 43.061 6.73991 42.7375 6.5461C42.4139 6.35228 42.0438 6.24994 41.6666 6.25H8.33329C7.95645 6.25019 7.58672 6.3526 7.26347 6.54631C6.94023 6.74002 6.67558 7.01777 6.49771 7.35C6.31984 7.68222 6.23541 8.05647 6.25342 8.43288C6.27142 8.80929 6.39119 9.17377 6.59996 9.4875L22.9166 33.9646V41.6667H16.6666V45.8333H33.3333V41.6667H27.0833V33.9646L43.4 9.48958ZM25 29.5771L17.7812 18.75H32.2187L25 29.5771ZM37.775 10.4167L34.9979 14.5833H15.002L12.225 10.4167H37.775Z" fill="rgb(255, 205, 86)"/>
</svg>
