<svg width="50" height="50" viewBox="0 0 50 50" fill="none" xmlns="http://www.w3.org/2000/svg">
<path d="M10.9375 29.6875V20.3125H14.8438V17.1875H3.90625V20.3125H7.8125V29.6875H10.9375Z" fill="rgb(255, 99, 132)"/>
<path d="M32.5668 29.6875L34.7657 26.3045L36.9646 29.6875H40.6918L36.6293 23.4375L40.6918 17.1875H36.9646L34.7657 20.5705L32.5668 17.1875H28.8396L32.9021 23.4375L28.8396 29.6875H32.5668Z" fill="rgb(255, 99, 132)"/>
<path d="M42.9688 17.1875H46.0938V29.6875H42.9688V17.1875Z" fill="rgb(255, 99, 132)"/>
<path d="M3.90625 10.1562H46.0938V13.2812H3.90625V10.1562Z" fill="rgb(255, 99, 132)"/>
<path d="M3.90625 33.5938H46.0938V36.7188H3.90625V33.5938Z" fill="rgb(255, 99, 132)"/>
<path d="M23.568 27.3438L24.3493 29.6875H27.6433L23.4765 17.1875H18.989L15.1376 29.6875H18.4075L19.1302 27.3438H23.568ZM21.2617 20.4244L22.5264 24.2188H20.0926L21.2617 20.4244Z" fill="rgb(255, 99, 132)"/>
</svg>
