<svg width="50" height="50" viewBox="0 0 50 50" fill="none" xmlns="http://www.w3.org/2000/svg">
<path d="M46.4508 21.7912L37.6352 20.433L32.2628 11.6567C31.9808 11.1973 31.585 10.8185 31.1137 10.5569C30.6424 10.2953 30.1116 10.1598 29.5726 10.1634L7.05713 10.3428C6.40748 10.3483 5.77568 10.556 5.24951 10.9371C4.72333 11.3181 4.32893 11.8536 4.12109 12.4692L1.5625 20.0562V37.5H6.93418C7.35177 38.8574 8.19354 40.0452 9.3359 40.889C10.4783 41.7328 11.8611 42.1881 13.2812 42.1881C14.7014 42.1881 16.0842 41.7328 17.2266 40.889C18.369 40.0452 19.2107 38.8574 19.6283 37.5H29.5904C30.008 38.8574 30.8498 40.0452 31.9922 40.889C33.1345 41.7328 34.5173 42.1881 35.9375 42.1881C37.3577 42.1881 38.7405 41.7328 39.8828 40.889C41.0252 40.0452 41.867 38.8574 42.2846 37.5H48.4375V24.1076C48.4401 23.5472 48.2407 23.0046 47.8758 22.5792C47.5109 22.1538 47.0051 21.8741 46.4508 21.7912ZM21.875 13.3496L29.5975 13.2881L33.9041 20.3239L21.875 20.3198V13.3496ZM7.08213 13.4676L18.75 13.3746V20.3187L4.77354 20.3137L7.08213 13.4676ZM13.2812 39.0625C12.5859 39.0625 11.9062 38.8563 11.3281 38.47C10.7499 38.0837 10.2993 37.5347 10.0332 36.8923C9.76715 36.2499 9.69753 35.543 9.83318 34.861C9.96883 34.1791 10.3037 33.5526 10.7953 33.061C11.287 32.5693 11.9134 32.2345 12.5954 32.0988C13.2773 31.9632 13.9842 32.0328 14.6266 32.2989C15.269 32.565 15.8181 33.0156 16.2044 33.5937C16.5907 34.1719 16.7969 34.8516 16.7969 35.5469C16.7958 36.479 16.4251 37.3726 15.766 38.0317C15.1069 38.6908 14.2133 39.0615 13.2812 39.0625ZM35.9375 39.0625C35.2422 39.0625 34.5625 38.8563 33.9843 38.47C33.4062 38.0837 32.9556 37.5347 32.6895 36.8923C32.4234 36.2499 32.3538 35.543 32.4894 34.861C32.6251 34.1791 32.9599 33.5526 33.4516 33.061C33.9432 32.5693 34.5697 32.2345 35.2516 32.0988C35.9336 31.9632 36.6405 32.0328 37.2829 32.2989C37.9253 32.565 38.4743 33.0156 38.8606 33.5937C39.2469 34.1719 39.4531 34.8516 39.4531 35.5469C39.4521 36.479 39.0814 37.3726 38.4223 38.0317C37.7632 38.6908 36.8696 39.0615 35.9375 39.0625ZM45.3125 34.375H42.4725C42.1979 32.8416 41.3929 31.4535 40.1982 30.4537C39.0035 29.454 37.4953 28.9061 35.9375 28.9061C34.3797 28.9061 32.8715 29.454 31.6768 30.4537C30.4821 31.4535 29.6771 32.8416 29.4025 34.375H19.8162C19.5417 32.8416 18.7366 31.4535 17.542 30.4537C16.3473 29.454 14.8391 28.9061 13.2812 28.9061C11.7234 28.9061 10.2152 29.454 9.02054 30.4537C7.82587 31.4535 7.02083 32.8416 6.74629 34.375H4.6875V23.4401L36.9654 23.4917L45.3125 24.7778V34.375Z" fill="rgb(54, 162, 235)"/>
</svg>
