<svg width="50" height="50" viewBox="0 0 50 50" fill="none" xmlns="http://www.w3.org/2000/svg">
<path d="M18.5139 44.4445C20.2398 44.4445 21.6389 43.0453 21.6389 41.3195C21.6389 39.5936 20.2398 38.1945 18.5139 38.1945C16.788 38.1945 15.3889 39.5936 15.3889 41.3195C15.3889 43.0453 16.788 44.4445 18.5139 44.4445Z" fill="rgb(255, 159, 64)"/>
<path d="M37.5 44.4445C39.2259 44.4445 40.625 43.0453 40.625 41.3195C40.625 39.5936 39.2259 38.1945 37.5 38.1945C35.7741 38.1945 34.375 39.5936 34.375 41.3195C34.375 43.0453 35.7741 44.4445 37.5 44.4445Z" fill="rgb(255, 159, 64)"/>
<path d="M45.9444 7.45837C45.8152 7.29904 45.6523 7.17033 45.4674 7.08148C45.2824 6.99262 45.0801 6.94584 44.875 6.94448H15.9583L16.8611 9.72226H43.0555L39.3472 26.3889H18.5139L12.1667 6.2917C12.098 6.07845 11.9788 5.88497 11.8192 5.72777C11.6595 5.57057 11.4643 5.45432 11.25 5.38893L5.55555 3.63892C5.38046 3.58512 5.19648 3.56633 5.01412 3.58363C4.83176 3.60092 4.65459 3.65397 4.49274 3.73973C4.16585 3.91294 3.92116 4.20891 3.8125 4.56254C3.70383 4.91616 3.74009 5.29846 3.9133 5.62535C4.08651 5.95224 4.38249 6.19693 4.73611 6.30559L9.72222 7.83337L16.0972 27.9723L13.8194 29.8334L13.6389 30.0139C13.0755 30.6632 12.7561 31.4887 12.7358 32.3481C12.7155 33.2075 12.9956 34.0471 13.5278 34.7223C13.9063 35.1826 14.3874 35.548 14.9324 35.7892C15.4775 36.0303 16.0714 36.1406 16.6667 36.1111H39.8472C40.2156 36.1111 40.5688 35.9648 40.8293 35.7043C41.0898 35.4439 41.2361 35.0906 41.2361 34.7223C41.2361 34.3539 41.0898 34.0006 40.8293 33.7402C40.5688 33.4797 40.2156 33.3334 39.8472 33.3334H16.4444C16.2845 33.3279 16.1287 33.2813 15.992 33.198C15.8554 33.1148 15.7425 32.9977 15.6643 32.858C15.5861 32.7184 15.5452 32.561 15.5457 32.4009C15.5461 32.2409 15.5877 32.0837 15.6667 31.9445L19.0139 29.1667H40.4583C40.7794 29.1745 41.0932 29.0709 41.3465 28.8734C41.5997 28.6758 41.7767 28.3967 41.8472 28.0834L46.25 8.63892C46.2922 8.43187 46.2867 8.2179 46.2337 8.01332C46.1808 7.80874 46.0818 7.61894 45.9444 7.45837Z" fill="rgb(255, 159, 64)"/>
</svg>
