<svg width="50" height="50" viewBox="0 0 50 50" fill="none" xmlns="http://www.w3.org/2000/svg">
<path d="M15.2197 46.4287H36.384C37.6028 46.4282 38.7714 45.9437 39.633 45.0818C40.4946 44.2198 40.9787 43.051 40.9787 41.8322V21.4465C45.2876 21.2751 47.8715 16.4912 45.568 12.7733L44.2215 10.6019C43.7125 9.77976 43.002 9.10122 42.1573 8.63059C41.3126 8.15996 40.3617 7.91283 39.3947 7.9126H35.5519V6.21439C35.5519 5.51377 35.2737 4.84182 34.7784 4.34624C34.2832 3.85066 33.6114 3.57201 32.9108 3.57153C32.0506 3.57177 31.199 3.74142 30.4044 4.07081C29.6098 4.40019 28.8878 4.88286 28.2798 5.49125C27.6717 6.09964 27.1895 6.82183 26.8605 7.61661C26.5315 8.41138 26.3624 9.26316 26.3626 10.1233V19.3822C22.9394 19.7162 20.3555 21.3376 18.4572 23.6162C16.3608 26.134 15.1269 29.4162 14.3912 32.568C13.6537 35.7376 13.3912 38.8858 13.3144 41.2287C13.2859 42.0688 13.2781 42.9096 13.2912 43.7501H11.5269C10.4981 43.7496 9.49196 43.4487 8.63193 42.8842C7.7719 42.3197 7.09548 41.5163 6.68579 40.5727C6.27609 39.629 6.15095 38.5863 6.32575 37.5725C6.50056 36.5587 6.96768 35.6181 7.66973 34.8662L10.134 32.2233C11.8329 30.4015 12.7582 27.9912 12.7149 25.5005C12.6716 23.0098 11.6631 20.6332 9.90188 18.8715L7.48581 16.4519C7.3632 16.3203 7.21534 16.2148 7.05105 16.1416C6.88677 16.0684 6.70942 16.029 6.5296 16.0258C6.34977 16.0227 6.17115 16.0557 6.00438 16.1231C5.83762 16.1905 5.68613 16.2907 5.55895 16.4179C5.43178 16.5451 5.33152 16.6966 5.26416 16.8633C5.1968 17.0301 5.16372 17.2087 5.16689 17.3885C5.17007 17.5684 5.20943 17.7457 5.28263 17.91C5.35583 18.0743 5.46137 18.2221 5.59295 18.3447L8.01259 20.7662C9.28328 22.0364 10.0109 23.7505 10.0419 25.5469C10.0728 27.3433 9.40479 29.0815 8.17866 30.3947L5.71438 33.0376C4.65782 34.1713 3.95506 35.5887 3.69229 37.116C3.42951 38.6433 3.61813 40.2141 4.23502 41.6358C4.85192 43.0574 5.87027 44.2682 7.1652 45.1195C8.46013 45.9709 9.97536 46.4259 11.5251 46.4287H15.2179H15.2197ZM32.8751 6.2501V9.25368C32.8751 9.99475 33.4733 10.593 34.2144 10.593H39.393C40.434 10.593 41.3983 11.1305 41.9465 12.0144L43.2912 14.1876C44.5322 16.1876 43.0947 18.7751 40.7394 18.7751H39.6394C39.2842 18.7751 38.9435 18.9162 38.6924 19.1674C38.4412 19.4185 38.3001 19.7592 38.3001 20.1144V41.8322C38.3001 42.8912 37.443 43.7501 36.384 43.7501H34.4662V41.8322C34.4666 40.801 34.2639 39.7797 33.8697 38.8268C33.4754 37.8739 32.8973 37.008 32.1683 36.2785C31.4394 35.5491 30.5738 34.9703 29.6212 34.5754C28.6685 34.1805 27.6474 33.9771 26.6162 33.9769H23.9019C23.5467 33.9769 23.206 34.118 22.9549 34.3692C22.7037 34.6203 22.5626 34.961 22.5626 35.3162C22.5626 35.6714 22.7037 36.012 22.9549 36.2632C23.206 36.5144 23.5467 36.6555 23.9019 36.6555H26.6162C29.4733 36.6555 31.7894 38.9733 31.7894 41.8322V43.7501H15.9679C15.9546 42.9387 15.9618 42.1272 15.9894 41.3162C16.0644 39.0769 16.3126 36.1162 16.9983 33.1769C17.6876 30.2215 18.7947 27.3947 20.5144 25.3322C22.193 23.3162 24.4733 21.9965 27.7019 21.9965C27.8778 21.9965 28.0519 21.9619 28.2144 21.8946C28.3769 21.8273 28.5245 21.7286 28.6489 21.6043C28.7733 21.4799 28.8719 21.3323 28.9392 21.1698C29.0065 21.0073 29.0412 20.8331 29.0412 20.6572V10.1215C29.0412 7.99653 30.7537 6.26975 32.8751 6.2501Z" fill="rgb(255, 205, 86)"/>
</svg>
