<svg width="50" height="50" viewBox="0 0 50 50" fill="none" xmlns="http://www.w3.org/2000/svg">
<path d="M29.7292 12.5001C28.5833 14.4792 29.2708 17.0417 31.25 18.1876C33.2292 19.3334 35.7917 18.6459 36.9375 16.6667C38.0833 14.6876 37.3958 12.1251 35.4167 10.9792C33.4375 9.83339 30.875 10.5209 29.7292 12.5001Z" fill="rgb(75, 192, 192)"/>
<path d="M33 21.6874L27.5833 18.5624C22.625 15.6874 20.9167 9.31244 23.7917 4.35411L20.1875 2.27078C16.875 7.97911 17.9167 15.0208 22.2083 19.5833L11.4792 38.1666L15.0833 40.2499L18.2083 34.8333L21.8125 36.9166L15.5625 47.7499L19.1667 49.8333L32.2708 27.1458C33.4711 28.7744 34.1713 30.7173 34.2859 32.7372C34.4006 34.7571 33.9249 36.7667 32.9167 38.5208L36.5208 40.6041C39.8542 34.8749 39.1875 26.8958 33 21.6874ZM26.5625 7.91661C28.0625 8.77078 29.9583 8.27078 30.8333 6.77078C31.6875 5.27078 31.1875 3.37495 29.6875 2.49995C28.9701 2.10019 28.1242 1.99871 27.3326 2.21744C26.541 2.43616 25.8672 2.95753 25.4568 3.66891C25.0464 4.38029 24.9323 5.22457 25.1392 6.01936C25.3461 6.81414 25.8573 7.49564 26.5625 7.91661Z" fill="rgb(75, 192, 192)"/>
</svg>
