<svg width="50" height="50" viewBox="0 0 50 50" fill="none" xmlns="http://www.w3.org/2000/svg">
<path d="M25 4.16675C16.6667 4.16675 8.33334 5.20841 8.33334 12.5001V32.2917C8.33334 36.3126 11.6042 39.5834 15.625 39.5834L12.5 41.6667V43.7501H37.5V41.6667L34.375 39.5834C38.3958 39.5834 41.6667 36.3126 41.6667 32.2917V12.5001C41.6667 5.20841 34.2083 4.16675 25 4.16675ZM25 8.33341C32.7292 8.33341 35.6875 9.29175 36.8125 10.4167H13.3958C14.6458 9.33341 17.6667 8.33341 25 8.33341ZM37.5 32.2917C37.5 34.0209 36.1042 35.4167 34.375 35.4167H15.625C13.8958 35.4167 12.5 34.0209 12.5 32.2917V25.0001H37.5V32.2917ZM37.5 20.8334H12.5V14.5834H37.5V20.8334Z" fill="rgb(54, 162, 235)"/>
<path d="M25 33.3334C26.7259 33.3334 28.125 31.9343 28.125 30.2084C28.125 28.4825 26.7259 27.0834 25 27.0834C23.2741 27.0834 21.875 28.4825 21.875 30.2084C21.875 31.9343 23.2741 33.3334 25 33.3334Z" fill="rgb(54, 162, 235)"/>
</svg>
