<svg width="50" height="50" viewBox="0 0 50 50" fill="none" xmlns="http://www.w3.org/2000/svg">
<path d="M25 4.6875C23.5531 4.6875 21.9609 5.10937 20.6047 5.51719C19.275 5.92031 18.2984 6.33594 18.2609 6.34687H18.2141L13.7203 7.8625L13.5734 7.90937C13.3757 7.96521 13.1807 8.03038 12.9891 8.10469L12.5 8.25313V8.30313C11.1937 8.86406 9.14844 10.0781 7.95937 12.6C6.34219 16.0156 6.25 20.2625 6.25 20.2625V23.4375H12.5V45.3125H37.5V23.4375H43.75V20.1656C43.75 20.1656 43.6156 18.8422 43.3594 17.2359C43.1031 15.6313 42.8406 13.8609 41.9437 12.4516C40.8594 10.7209 39.3229 9.31937 37.5 8.39844V8.25156L36.8656 8.05625C36.7734 8.01406 36.7922 8.03906 36.7188 8.00781L36.425 7.90937L31.7875 6.34687H31.7375C31.7016 6.33594 30.725 5.92031 29.3938 5.51875C28.0391 5.10938 26.4484 4.6875 25 4.6875ZM25 7.8125C25.6781 7.8125 27.2281 8.17187 28.4672 8.54531C28.7906 8.64219 28.7719 8.64844 29.0531 8.74062C28.9547 8.88594 28.8813 9.02656 28.7594 9.17969C28.0281 10.0891 27.0016 10.9375 25 10.9375C22.9984 10.9375 21.9719 10.0891 21.2406 9.17969C21.1187 9.02656 21.0453 8.88594 20.9469 8.74062C21.2281 8.64844 21.2094 8.64219 21.5328 8.54531C22.7719 8.17187 24.3219 7.8125 25 7.8125ZM17.8703 9.71719C18.1031 10.1625 18.4016 10.6391 18.7984 11.1328C19.5432 12.0584 20.4883 12.803 21.5625 13.3105C22.6367 13.8179 23.812 14.0751 25 14.0625C27.9781 14.0625 30.0469 12.5672 31.2016 11.1328C31.5984 10.6391 31.8969 10.1625 32.1281 9.71719L34.375 10.4984V42.1875H15.625V10.4984L17.8703 9.71719ZM12.5 11.8156V20.3125H9.375C9.38125 20.2266 9.61875 16.4422 10.7906 13.9641C11.2609 12.9703 11.8844 12.2797 12.5 11.8172V11.8156ZM37.5 12.0609C38.0734 12.5422 38.7078 13.1703 39.3063 14.1109C39.5563 14.5078 40.0453 16.2594 40.2828 17.725C40.5094 19.1094 40.6125 20.1906 40.625 20.3125H37.5V12.0609Z" fill="rgb(255, 99, 132)"/>
</svg>
