<svg width="50" height="50" viewBox="0 0 50 50" fill="none" xmlns="http://www.w3.org/2000/svg">
<path d="M37.2084 3.125L26.8959 13.3958L31.3126 17.8125L33.5209 15.625L31.3126 13.3958L37.2084 7.5L39.4167 9.70833L41.6667 7.5L37.2084 3.125ZM44.5834 7.5L32.4167 19.6667L27.9792 21.1458L6.25006 42.8542L9.22923 45.8333L21.0001 34.0208L29.8542 42.8542L38.6876 34.0208L29.8542 25.1875L30.2084 24.7917L34.6459 23.3125L44.5834 13.3958C46.2084 11.7708 46.2084 9.125 44.5834 7.5ZM13.6459 8.97917L4.81256 17.8125L15.1251 28.125L23.9584 19.2917L13.6459 8.97917ZM37.9584 37.7083L33.5209 42.125L36.4584 45.0625L40.8959 40.625L37.9584 37.7083Z" fill="rgb(255, 159, 64)"/>
</svg>
