<svg width="50" height="50" viewBox="0 0 50 50" fill="none" xmlns="http://www.w3.org/2000/svg">
<path d="M14.8438 14.0626V6.25011C14.8438 5.83571 15.0084 5.43828 15.3014 5.14526C15.5944 4.85223 15.9918 4.68761 16.4062 4.68761C16.8207 4.68761 17.2181 4.85223 17.5111 5.14526C17.8041 5.43828 17.9688 5.83571 17.9688 6.25011V14.0626C17.9688 14.477 17.8041 14.8744 17.5111 15.1675C17.2181 15.4605 16.8207 15.6251 16.4062 15.6251C15.9918 15.6251 15.5944 15.4605 15.3014 15.1675C15.0084 14.8744 14.8438 14.477 14.8438 14.0626ZM23.4162 5.99327C23.3837 5.78978 23.3113 5.59473 23.2031 5.41934C23.0949 5.24396 22.953 5.09171 22.7858 4.97137C22.6185 4.85102 22.429 4.76496 22.2283 4.71813C22.0277 4.6713 21.8197 4.66463 21.6164 4.6985C21.4132 4.73237 21.2186 4.80612 21.0439 4.9155C20.8693 5.02488 20.718 5.16773 20.5988 5.33582C20.4796 5.5039 20.3948 5.69392 20.3493 5.89491C20.3038 6.0959 20.2985 6.30391 20.3338 6.50695L21.8736 15.7464C21.8417 17.1753 21.2516 18.5349 20.2298 19.5341C19.2079 20.5334 17.8355 21.0929 16.4062 21.0929C14.977 21.0929 13.6046 20.5334 12.5827 19.5341C11.5609 18.5349 10.9708 17.1753 10.9389 15.7464L12.4787 6.50695C12.514 6.30391 12.5087 6.0959 12.4632 5.89491C12.4177 5.69392 12.3329 5.5039 12.2137 5.33582C12.0945 5.16773 11.9432 5.02488 11.7686 4.9155C11.5939 4.80612 11.3993 4.73237 11.1961 4.6985C10.9928 4.66463 10.7848 4.6713 10.5842 4.71813C10.3835 4.76496 10.194 4.85102 10.0267 4.97137C9.85946 5.09171 9.71764 5.24396 9.60944 5.41934C9.50124 5.59473 9.4288 5.78978 9.39629 5.99327L7.83379 15.3683C7.81961 15.4532 7.81249 15.5391 7.8125 15.6251C7.81532 17.6323 8.51963 19.5754 9.8036 21.1183C11.0876 22.6611 12.8704 23.7066 14.8438 24.0739V43.7501C14.8438 44.1645 15.0084 44.5619 15.3014 44.855C15.5944 45.148 15.9918 45.3126 16.4062 45.3126C16.8207 45.3126 17.2181 45.148 17.5111 44.855C17.8041 44.5619 17.9688 44.1645 17.9688 43.7501V24.0739C19.9421 23.7066 21.7249 22.6611 23.0089 21.1183C24.2929 19.5754 24.9972 17.6323 25 15.6251C25 15.5391 24.9929 15.4532 24.9787 15.3683L23.4162 5.99327ZM41.4062 6.25011V43.7501C41.4062 44.1645 41.2416 44.5619 40.9486 44.855C40.6556 45.148 40.2582 45.3126 39.8438 45.3126C39.4293 45.3126 39.0319 45.148 38.7389 44.855C38.4459 44.5619 38.2812 44.1645 38.2812 43.7501V32.8126H28.9062C28.687 32.8126 28.4702 32.7665 28.2699 32.6772C28.0697 32.588 27.8904 32.4575 27.7439 32.2945C27.5974 32.1314 27.4868 31.9393 27.4194 31.7306C27.3519 31.522 27.3292 31.3015 27.3525 31.0835C27.8233 27.1684 28.591 23.2947 29.649 19.496C31.9967 11.2097 35.2473 6.2589 39.3098 4.78156C39.5458 4.69572 39.7991 4.66805 40.0481 4.70089C40.2971 4.73374 40.5345 4.82612 40.7402 4.97022C40.9459 5.11432 41.1139 5.30588 41.2298 5.52868C41.3457 5.75148 41.4063 5.99895 41.4062 6.25011ZM38.2812 9.05441C36.1195 11.0573 34.2016 14.8915 32.6557 20.348C31.805 23.4169 31.1481 26.5363 30.6889 29.6876H38.2812V9.05441Z" fill="rgb(255, 205, 86)"/>
</svg>
