<svg width="50" height="50" viewBox="0 0 50 50" fill="none" xmlns="http://www.w3.org/2000/svg">
<path d="M19.7917 21.8749H25C25.5525 21.8749 26.0824 21.6554 26.4731 21.2647C26.8638 20.874 27.0833 20.3441 27.0833 19.7916C27.0833 19.2391 26.8638 18.7092 26.4731 18.3185C26.0824 17.9278 25.5525 17.7083 25 17.7083H22.9167V16.6666C22.9167 16.1141 22.6972 15.5842 22.3065 15.1935C21.9158 14.8028 21.3859 14.5833 20.8333 14.5833C20.2808 14.5833 19.7509 14.8028 19.3602 15.1935C18.9695 15.5842 18.75 16.1141 18.75 16.6666V17.8124C17.4842 18.0695 16.3591 18.7876 15.593 19.8276C14.827 20.8675 14.4747 22.155 14.6045 23.44C14.7343 24.7251 15.337 25.9161 16.2955 26.7818C17.254 27.6476 18.5001 28.1262 19.7917 28.1249H21.875C22.1513 28.1249 22.4162 28.2347 22.6116 28.43C22.8069 28.6254 22.9167 28.8903 22.9167 29.1666C22.9167 29.4429 22.8069 29.7078 22.6116 29.9032C22.4162 30.0985 22.1513 30.2083 21.875 30.2083H16.6667C16.1141 30.2083 15.5842 30.4278 15.1935 30.8185C14.8028 31.2092 14.5833 31.7391 14.5833 32.2916C14.5833 32.8441 14.8028 33.374 15.1935 33.7647C15.5842 34.1555 16.1141 34.3749 16.6667 34.3749H18.75V35.4166C18.75 35.9691 18.9695 36.4991 19.3602 36.8897C19.7509 37.2804 20.2808 37.4999 20.8333 37.4999C21.3859 37.4999 21.9158 37.2804 22.3065 36.8897C22.6972 36.4991 22.9167 35.9691 22.9167 35.4166V34.2708C24.1825 34.0138 25.3076 33.2956 26.0736 32.2556C26.8397 31.2157 27.192 29.9283 27.0622 28.6432C26.9324 27.3581 26.3297 26.1671 25.3712 25.3014C24.4126 24.4356 23.1666 23.957 21.875 23.9583H19.7917C19.5154 23.9583 19.2505 23.8485 19.0551 23.6532C18.8598 23.4578 18.75 23.1929 18.75 22.9166C18.75 22.6403 18.8598 22.3754 19.0551 22.18C19.2505 21.9847 19.5154 21.8749 19.7917 21.8749ZM43.75 24.9999H37.5V6.24994C37.5015 5.88283 37.4059 5.52186 37.223 5.20358C37.04 4.88529 36.7763 4.62099 36.4583 4.43744C36.1416 4.25459 35.7824 4.15833 35.4167 4.15833C35.051 4.15833 34.6917 4.25459 34.375 4.43744L28.125 8.02077L21.875 4.43744C21.5583 4.25459 21.199 4.15833 20.8333 4.15833C20.4676 4.15833 20.1084 4.25459 19.7917 4.43744L13.5417 8.02077L7.29167 4.43744C6.97497 4.25459 6.61571 4.15833 6.25001 4.15833C5.8843 4.15833 5.52505 4.25459 5.20834 4.43744C4.89041 4.62099 4.62663 4.88529 4.44371 5.20358C4.26079 5.52186 4.16522 5.88283 4.16667 6.24994V39.5833C4.16667 41.2409 4.82515 42.8306 5.99726 44.0027C7.16936 45.1748 8.75907 45.8333 10.4167 45.8333H39.5833C41.2409 45.8333 42.8307 45.1748 44.0028 44.0027C45.1749 42.8306 45.8333 41.2409 45.8333 39.5833V27.0833C45.8333 26.5307 45.6138 26.0008 45.2231 25.6101C44.8324 25.2194 44.3025 24.9999 43.75 24.9999ZM10.4167 41.6666C9.86414 41.6666 9.33423 41.4471 8.94353 41.0564C8.55283 40.6657 8.33334 40.1358 8.33334 39.5833V9.85411L12.5 12.2291C12.8215 12.397 13.1789 12.4848 13.5417 12.4848C13.9044 12.4848 14.2618 12.397 14.5833 12.2291L20.8333 8.64577L27.0833 12.2291C27.4049 12.397 27.7623 12.4848 28.125 12.4848C28.4878 12.4848 28.8451 12.397 29.1667 12.2291L33.3333 9.85411V39.5833C33.339 40.294 33.4658 40.9985 33.7083 41.6666H10.4167ZM41.6667 39.5833C41.6667 40.1358 41.4472 40.6657 41.0565 41.0564C40.6658 41.4471 40.1359 41.6666 39.5833 41.6666C39.0308 41.6666 38.5009 41.4471 38.1102 41.0564C37.7195 40.6657 37.5 40.1358 37.5 39.5833V29.1666H41.6667V39.5833Z" fill="rgb(75, 192, 192)"/>
</svg>
